<svg id="Layer_1" data-name="Layer 1" xmlns="http://www.w3.org/2000/svg" viewBox="0 0 28 28"><defs><style>.cls-1{fill:#141e25;}</style></defs><title>clear</title><path class="cls-1" d="M19.5,20.27A.78.78,0,0,1,19,20L8,9.05A.77.77,0,0,1,9.05,8L20,19a.78.78,0,0,1-.54,1.32Z"/><path class="cls-1" d="M8.5,20.27A.78.78,0,0,1,8,19L19,8A.77.77,0,0,1,20,9.05l-11,11A.78.78,0,0,1,8.5,20.27Z"/><path class="cls-1" d="M14,2A12,12,0,1,0,26,14,12,12,0,0,0,14,2Zm0,22A10,10,0,1,1,24,14,10,10,0,0,1,14,24Z"/></svg>