<svg id="Layer_1" data-name="Layer 1" xmlns="http://www.w3.org/2000/svg" viewBox="0 0 28 28"><defs><style>.cls-1{fill:#141e25;}</style></defs><title>din</title><path class="cls-1" d="M25,6H22V4a2,2,0,0,0-2-2H8A2,2,0,0,0,6,4V6H3A1.08,1.08,0,0,0,2,7,1.08,1.08,0,0,0,3,8H4.2L6,24.2A2,2,0,0,0,8,26H19.1c1,0,2.8-.8,2.9-1.8L23.8,8H25a1.08,1.08,0,0,0,1-1A1.08,1.08,0,0,0,25,6ZM8,4H20V6H8ZM20,24H8L6.2,8H21.7Z"/><path class="cls-1" d="M11,22a.94.94,0,0,0,1-1V11a.94.94,0,0,0-1-1,.94.94,0,0,0-1,1V21A.94.94,0,0,0,11,22Z"/><path class="cls-1" d="M17,22a.94.94,0,0,0,1-1V11a1,1,0,0,0-2,0V21A.94.94,0,0,0,17,22Z"/></svg>