<svg id="Layer_1" data-name="Layer 1" xmlns="http://www.w3.org/2000/svg" viewBox="0 0 28 28"><defs><style>.cls-1{fill:#141e25;}</style></defs><title>lock_open</title><path class="cls-1" d="M22,12H8.8c0-4.4.8-8,5.2-8a4.43,4.43,0,0,1,4.7,3.4,1,1,0,0,0,.9.6h0a1,1,0,0,0,.9-1.3C19.5,3.9,17.6,2,14,2,8.5,2,6.8,6.5,6.8,12H6a2,2,0,0,0-2,2V24a2,2,0,0,0,2,2H22a2,2,0,0,0,2-2V14A2,2,0,0,0,22,12Zm0,12H6V14H22Z"/><path class="cls-1" d="M14,21h0a.94.94,0,0,1-1-1V18a.94.94,0,0,1,1-1h0a.94.94,0,0,1,1,1v2A.94.94,0,0,1,14,21Z"/></svg>