<svg id="Layer_1" data-name="Layer 1" xmlns="http://www.w3.org/2000/svg" viewBox="0 0 28 28"><defs><style>.cls-1{fill:#141e25;}</style></defs><title>info</title><path class="cls-1" d="M14,4.67A9.33,9.33,0,1,1,4.67,14,9.33,9.33,0,0,1,14,4.67M14,2A12,12,0,1,0,26,14,12,12,0,0,0,14,2Z"/><path class="cls-1" d="M15.41,12.19l-1.54,5.34a3.5,3.5,0,0,0-.13.61.26.26,0,0,0,.07.15.21.21,0,0,0,.15.07.4.4,0,0,0,.25-.11,4.36,4.36,0,0,0,.81-1l.26.15c-.76,1.32-1.56,2-2.42,2a1,1,0,0,1-.77-.28.88.88,0,0,1-.29-.69,2.75,2.75,0,0,1,.12-.71L13,14.1a3.16,3.16,0,0,0,.15-.79A.4.4,0,0,0,13,13a.61.61,0,0,0-.39-.13h-.27l.09-.3L15,12.19ZM15,8.63a1.15,1.15,0,0,1,.84.35,1.2,1.2,0,0,1,0,1.67,1.18,1.18,0,0,1-2-.84A1.18,1.18,0,0,1,15,8.63Z"/></svg>