<svg id="Layer_1" data-name="Layer 1" xmlns="http://www.w3.org/2000/svg" viewBox="0 0 28 28"><defs><style>.cls-1{fill:#141e25;}</style></defs><title>user_circle</title><path class="cls-1" d="M14,2A12,12,0,0,0,6.1,23a15.1,15.1,0,0,0,2.6,1.8A11.78,11.78,0,0,0,14,26a13.28,13.28,0,0,0,5.3-1.2A12,12,0,0,0,21.9,23,12,12,0,0,0,14,2Zm6,20a10.53,10.53,0,0,1-6,2,10.53,10.53,0,0,1-6-2H8a6,6,0,0,1,12,0ZM11,11a3,3,0,1,1,3,3A2.95,2.95,0,0,1,11,11Zm10.8,9.2a8.1,8.1,0,0,0-4.5-5.5,5,5,0,1,0-6.6,0,8.32,8.32,0,0,0-4.5,5.5A9.57,9.57,0,0,1,4,14a10,10,0,0,1,20,0A9.57,9.57,0,0,1,21.8,20.2Z"/></svg>